<svg width="83" height="55" viewBox="0 0 83 55" fill="none" xmlns="http://www.w3.org/2000/svg">
<path d="M67.2995 23.096C65.3728 23.096 63.5266 23.4457 61.8194 24.0836L61.0418 22.421C67.4504 19.9817 74.8042 21.5065 79.6959 26.4L81.4927 24.6036C75.8476 18.9567 67.3404 17.2291 59.9632 20.1161L57.5334 14.9211L61.0717 7.33278H68.8319V6.06233C68.8319 4.32564 68.0856 2.66986 66.7842 1.51969C65.4827 0.369519 63.748 -0.166901 62.024 0.0456246L54.0203 1.03693C52.4401 1.23259 51.2485 2.5807 51.2485 4.17294C51.2485 5.91529 52.6662 7.33294 54.4086 7.33294H58.2682L55.3219 13.6515H51.0313V11.0279H32.7486V13.6515H28.8283L30.957 9.08648C31.395 8.14657 31.3238 7.06351 30.7668 6.18926C30.2093 5.31451 29.2569 4.79236 28.2191 4.79236H18.7614C16.1002 4.79236 13.9351 6.95669 13.9351 9.61691C13.9351 10.9071 14.4368 12.1194 15.3492 13.0317C16.2619 13.942 17.4736 14.4432 18.7613 14.4432H23.4839V11.9022H18.7613C18.1509 11.9022 17.5763 11.6643 17.1444 11.2336C16.7133 10.8026 16.4759 10.2281 16.4759 9.61658C16.4759 8.35731 17.5012 7.33294 18.7614 7.33294H28.2191C28.4486 7.33294 28.5713 7.47187 28.624 7.55455C28.6766 7.63706 28.7505 7.8063 28.654 8.01283L21.1631 24.0774C19.4611 23.4437 17.6207 23.0967 15.7005 23.0967C7.04318 23.0968 0 30.14 0 38.7973C0 47.4548 7.04334 54.498 15.7006 54.498C24.358 54.498 31.4013 47.4546 31.4013 38.7973C31.4013 32.9622 28.2014 27.8609 23.4644 25.1546L24.3922 23.1652L39.9396 36.2125C39.5661 36.9659 39.355 37.8135 39.355 38.7099C39.355 41.3847 41.2263 43.6291 43.7278 44.2072V46.2725H42.3745V48.8133H46.2685V44.2071C48.3324 43.7303 49.9663 42.1193 50.4751 40.0676H51.6504C52.2993 48.1332 59.0699 54.4978 67.2994 54.4978C75.9568 54.4978 83 47.4544 83 38.7971C83.0002 30.1392 75.9568 23.096 67.2995 23.096ZM54.4092 4.79155C54.0676 4.79155 53.7899 4.51385 53.7899 4.17261C53.7899 3.86071 54.0234 3.59648 54.333 3.55822L62.337 2.56692C62.4813 2.54892 62.6257 2.54017 62.7695 2.54017C63.6235 2.54017 64.4553 2.85109 65.1023 3.42302C65.5291 3.80025 65.8533 4.27134 66.0545 4.79155H54.4092ZM24.925 38.7966C24.925 43.8828 20.787 48.021 15.7008 48.021C10.6146 48.021 6.47661 43.883 6.47661 38.7966C6.47661 33.7105 10.6146 29.5723 15.7008 29.5723C16.6436 29.5723 17.5537 29.7151 18.4111 29.9792L16.1056 34.9235C15.9723 34.9097 15.8373 34.9025 15.7006 34.9025C13.5535 34.9025 11.8066 36.6493 11.8066 38.7965C11.8066 40.9436 13.5535 42.6905 15.7006 42.6905C17.8478 42.6905 19.5947 40.9436 19.5947 38.7965C19.5947 37.7 19.1385 36.7087 18.4067 36.0003L20.7115 31.0579C23.2446 32.7039 24.925 35.5569 24.925 38.7966ZM17.0538 38.7966C17.0538 39.5428 16.4467 40.1499 15.7005 40.1499C14.9543 40.1499 14.3472 39.5428 14.3472 38.7966C14.3472 38.0505 14.9543 37.4434 15.7005 37.4434C16.4467 37.4434 17.0538 38.0505 17.0538 38.7966ZM28.8604 38.7966C28.8604 46.053 22.9568 51.9564 15.7006 51.9564C8.44429 51.9564 2.54091 46.0528 2.54091 38.7966C2.54091 31.5405 8.44446 25.6369 15.7006 25.6369C17.2373 25.6369 18.7122 25.9042 20.0844 26.3906L19.4916 27.6618C18.301 27.2554 17.027 27.0315 15.7006 27.0315C9.21334 27.0315 3.9357 32.3093 3.9357 38.7968C3.9357 45.2841 9.2135 50.5619 15.7006 50.5619C22.1878 50.5619 27.4656 45.2841 27.4656 38.7968C27.4656 34.5385 25.1915 30.8014 21.7942 28.736L22.3856 27.4679C26.2574 29.7611 28.8604 33.9796 28.8604 38.7966ZM62.2796 31.0639L64.59 36.0035C64.1567 36.4239 63.821 36.9437 63.6195 37.526H58.165C58.5391 34.8229 60.0884 32.4914 62.2796 31.0639ZM67.2995 42.6907C69.4467 42.6907 71.1936 40.9438 71.1936 38.7966C71.1936 36.6495 69.4467 34.9026 67.2995 34.9026C67.1612 34.9026 67.0247 34.9101 66.89 34.9243L64.5785 29.9824C65.439 29.7162 66.3526 29.5724 67.2994 29.5724C72.3855 29.5724 76.5237 33.7105 76.5237 38.7968C76.5237 43.883 72.3857 48.0212 67.2994 48.0212C62.6442 48.0212 58.7858 44.5543 58.1648 40.0673H63.6193V40.0671C64.1475 41.5922 65.5972 42.6907 67.2995 42.6907ZM65.9464 38.7966C65.9464 38.0505 66.5535 37.4434 67.2997 37.4434C68.0459 37.4434 68.653 38.0505 68.653 38.7966C68.653 39.5428 68.0459 40.1499 67.2997 40.1499C66.5535 40.1499 65.9464 39.5428 65.9464 38.7966ZM60.6011 27.4756L61.1941 28.7433C58.1455 30.6017 56.0055 33.8071 55.6041 37.5262H54.2022C54.6139 33.2497 57.0811 29.5663 60.6011 27.4756ZM35.2895 13.568H48.4907V16.2744H35.2895V13.568ZM25.5039 20.7804L27.6434 16.1917H32.7486V18.8153H51.0315V16.1916H54.1375L46.2077 33.1979C45.8179 33.1123 45.4134 33.0659 44.9982 33.0659C44.8326 33.0659 44.6692 33.0745 44.5072 33.0886L43.869 31.1243L45.1561 30.7066L44.3719 28.2897L40.667 29.4919L42.091 33.8745C41.9031 33.9878 41.723 34.1127 41.5503 34.2466L25.5039 20.7804ZM46.2687 41.5365V38.7965H43.728V41.5365C42.6496 41.05 41.896 39.9669 41.896 38.7091C41.896 36.9985 43.2877 35.6068 44.9982 35.6068C46.7088 35.6068 48.1005 36.9985 48.1005 38.7091C48.1007 39.9669 47.347 41.05 46.2687 41.5365ZM50.516 37.5262C50.2371 36.2253 49.5088 35.09 48.5019 34.2902L56.1336 17.9239L59.5197 25.1631C55.1387 27.6728 52.0766 32.2333 51.6507 37.5262H50.516ZM67.2995 51.9564C60.4718 51.9564 54.8435 46.7295 54.2023 40.0671H55.6043C56.2401 45.959 61.2416 50.5619 67.2997 50.5619C73.787 50.5619 79.0649 45.2841 79.0649 38.7966C79.0649 32.3095 73.7871 27.0315 67.2997 27.0315C65.9684 27.0315 64.6897 27.257 63.4956 27.6662L62.9011 26.3954C64.2775 25.9057 65.7575 25.6367 67.2998 25.6367C74.5562 25.6367 80.4596 31.5403 80.4596 38.7965C80.4594 46.053 74.5559 51.9564 67.2995 51.9564Z" fill="#A85622"/>
</svg>
