<svg width="45" height="45" viewBox="0 0 45 45" fill="none" xmlns="http://www.w3.org/2000/svg">
<path d="M43.1199 22.6255C43.1185 11.2392 33.8881 2.00879 22.5004 2.00879C11.1126 2.00879 1.88086 11.2405 1.88086 22.6283C1.88086 32.8789 9.36086 41.3819 19.1591 42.9783L19.2774 42.9948V28.5875H14.0414V22.6255H19.2774V18.0853C19.2512 17.8557 19.2375 17.5889 19.2375 17.3194C19.2375 13.3003 22.4962 10.0415 26.5154 10.0415C26.7092 10.0415 26.9017 10.0498 27.0929 10.0635L27.0681 10.0622C28.7167 10.0855 30.3117 10.2313 31.8682 10.4912L31.684 10.465V15.5388H29.0825C28.9642 15.5223 28.8281 15.5127 28.6906 15.5127C27.0447 15.5127 25.7096 16.8464 25.7096 18.4937C25.7096 18.5872 25.7137 18.6793 25.722 18.7714L25.7206 18.759V22.6255H31.4392L30.5249 28.5875H25.7206V42.9948C35.6385 41.3805 43.1185 32.8762 43.1199 22.6255Z" fill="white"/>
</svg>
