<svg width="45" height="45" viewBox="0 0 45 45" fill="none" xmlns="http://www.w3.org/2000/svg">
<g clip-path="url(#clip0_210_2517)">
<path d="M23.9886 0.544922C35.1524 0.544922 44.2863 9.6789 44.2863 20.8427V24.014C44.2863 35.1778 35.1523 44.3117 23.9886 44.3117H20.8173C9.65351 44.3117 0.519531 35.1778 0.519531 24.014V20.8427C0.519531 9.6789 9.65351 0.544922 20.8173 0.544922H23.9886ZM22.8019 11.5453L22.5195 11.5449C20.168 11.5449 17.8164 11.6227 17.8164 11.6227C14.3817 11.6227 11.5973 14.4071 11.5973 17.8418C11.5973 17.8418 11.5259 19.861 11.5199 22.0283L11.5195 22.3117C11.5195 24.7384 11.5973 27.2481 11.5973 27.2481C11.5973 30.6828 14.3817 33.4672 17.8164 33.4672C17.8164 33.4672 20.015 33.5449 22.2864 33.5449C24.713 33.5449 27.3005 33.4672 27.3005 33.4672C30.7352 33.4672 33.4418 30.7606 33.4418 27.3259C33.4418 27.3259 33.5195 24.8444 33.5195 22.4672L33.5181 21.9093C33.5076 19.7765 33.4418 17.764 33.4418 17.764C33.4418 14.3293 30.7351 11.6227 27.3004 11.6227C27.3004 11.6227 25.0616 11.551 22.8019 11.5453ZM22.5195 13.5249C24.4479 13.5249 26.9203 13.5886 26.9203 13.5886C29.7368 13.5886 31.4758 15.3276 31.4758 18.1441C31.4758 18.1441 31.5395 20.5743 31.5395 22.4811C31.5395 24.4304 31.4758 26.9456 31.4758 26.9456C31.4758 29.7621 29.7368 31.5011 26.9203 31.5011C26.9203 31.5011 24.7338 31.5547 22.8367 31.5636L22.3283 31.5648C20.4658 31.5648 18.1965 31.5011 18.1965 31.5011C15.3801 31.5011 13.5633 29.6843 13.5633 26.8679C13.5633 26.8679 13.4995 24.3435 13.4995 22.3536C13.4995 20.4912 13.5633 18.1441 13.5633 18.1441C13.5633 15.3276 15.3801 13.5886 18.1965 13.5886C18.1965 13.5886 20.5912 13.5249 22.5195 13.5249ZM22.5195 16.9101C19.4075 16.9101 16.8847 19.4328 16.8847 22.5449C16.8847 25.6569 19.4075 28.1797 22.5195 28.1797C25.6315 28.1797 28.1543 25.6569 28.1543 22.5449C28.1543 19.4328 25.6315 16.9101 22.5195 16.9101ZM22.5195 18.8782C24.5446 18.8782 26.1862 20.5198 26.1862 22.5449C26.1862 24.5699 24.5446 26.2115 22.5195 26.2115C20.4945 26.2115 18.8528 24.5699 18.8528 22.5449C18.8528 20.5198 20.4944 18.8782 22.5195 18.8782ZM28.4239 15.3464C27.672 15.3464 27.0624 15.959 27.0624 16.7146C27.0624 17.4703 27.672 18.0828 28.4239 18.0828C29.1758 18.0828 29.7854 17.4703 29.7854 16.7146C29.7854 15.9589 29.1758 15.3464 28.4239 15.3464Z" fill="white"/>
</g>
<defs>
<clipPath id="clip0_210_2517">
<rect width="44" height="44" fill="white" transform="translate(0.5 0.5)"/>
</clipPath>
</defs>
</svg>
