<svg width="45" height="45" viewBox="0 0 45 45" fill="none" xmlns="http://www.w3.org/2000/svg">
<g clip-path="url(#clip0_210_2522)">
<path d="M22.5 0.5C10.3484 0.5 0.5 10.3484 0.5 22.5C0.5 34.6516 10.3484 44.5 22.5 44.5C34.6516 44.5 44.5 34.6516 44.5 22.5C44.5 10.3484 34.6516 0.5 22.5 0.5ZM31.2828 19.0797C31.2914 19.2688 31.2914 19.4664 31.2914 19.6641C31.2914 25.6367 26.7453 32.5289 18.4266 32.5289C15.8742 32.5289 13.4937 31.7812 11.5 30.5008C11.8523 30.5438 12.2133 30.5609 12.5828 30.5609C14.6969 30.5609 16.6477 29.8391 18.1945 28.6273C16.218 28.593 14.5422 27.2867 13.975 25.4906C14.25 25.5422 14.5336 25.568 14.8258 25.568C15.2383 25.568 15.6422 25.5164 16.0203 25.4047C13.9492 24.9922 12.3937 23.1617 12.3937 20.9703V20.9188C13.0039 21.2539 13.7 21.4602 14.4391 21.4859C13.2273 20.6781 12.4281 19.2859 12.4281 17.7219C12.4281 16.8969 12.6516 16.1148 13.0383 15.4445C15.2727 18.1859 18.5984 19.982 22.3539 20.1711C22.2766 19.8445 22.2336 19.5008 22.2336 19.1398C22.2336 16.6477 24.2617 14.6195 26.7539 14.6195C28.0516 14.6195 29.2289 15.1695 30.0539 16.0461C31.0852 15.8398 32.0477 15.4703 32.9242 14.9461C32.5891 16.0031 31.8672 16.8883 30.9391 17.4469C31.85 17.3352 32.7266 17.0945 33.5344 16.7336C32.9328 17.6445 32.168 18.4352 31.2828 19.0797Z" fill="white"/>
</g>
<defs>
<clipPath id="clip0_210_2522">
<rect width="44" height="44" fill="white" transform="translate(0.5 0.5)"/>
</clipPath>
</defs>
</svg>
